<?xml version="1.0" standalone="no"?>
<!DOCTYPE svg PUBLIC "-//W3C//DTD SVG 20010904//EN"
 "http://www.w3.org/TR/2001/REC-SVG-20010904/DTD/svg10.dtd">
<svg version="1.0" xmlns="http://www.w3.org/2000/svg"
 width="250.000000pt" height="250.000000pt" viewBox="0 0 250.000000 250.000000"
 preserveAspectRatio="xMidYMid meet">

<g transform="translate(0.000000,250.000000) scale(0.100000,-0.100000)"
fill="#00ff00" stroke="none">
<path d="M1106 2289 c-556 -72 -966 -597 -896 -1149 45 -363 254 -659 573
-815 191 -93 372 -126 564 -105 143 15 230 42 368 110 204 102 361 260 460
464 92 190 126 372 105 561 -15 139 -41 230 -105 362 -195 400 -623 629 -1069
572z m403 -114 c169 -54 294 -128 412 -245 121 -121 203 -262 251 -438 31
-113 31 -362 0 -476 -94 -339 -349 -594 -688 -688 -114 -31 -363 -31 -476 0
-176 48 -317 130 -438 251 -118 119 -192 244 -247 417 -26 83 -28 100 -28 259
0 159 2 176 28 258 107 339 330 562 659 661 113 34 122 35 293 31 129 -3 162
-7 234 -30z"/>
<path d="M1145 1990 c-179 -24 -367 -130 -479 -273 -217 -274 -213 -660 8
-933 92 -114 265 -220 406 -250 255 -53 506 20 686 200 145 145 215 315 215
522 0 120 -22 218 -70 318 -91 186 -234 313 -430 381 -113 40 -216 50 -336 35z
m239 -95 c218 -46 412 -222 482 -438 34 -103 39 -265 12 -364 -64 -233 -238
-407 -471 -471 -99 -27 -261 -22 -364 12 -318 103 -507 432 -438 761 38 183
176 360 345 444 139 68 286 87 434 56z"/>
<path d="M1212 1808 c-19 -19 -14 -48 11 -58 12 -5 54 -14 94 -20 205 -32 369
-196 403 -402 43 -252 -142 -504 -401 -548 -255 -43 -508 142 -549 403 -14 91
-25 117 -48 117 -30 0 -42 -21 -42 -75 0 -122 68 -273 166 -371 134 -132 331
-191 516 -153 90 18 212 85 282 153 69 68 136 191 155 284 60 295 -124 591
-415 667 -70 18 -155 20 -172 3z"/>
<path d="M1223 1604 c-7 -3 -29 -57 -50 -120 l-37 -114 -116 0 c-118 0 -136
-4 -140 -30 -5 -32 3 -40 94 -105 l93 -67 -34 -110 c-19 -60 -31 -117 -28
-128 13 -41 42 -34 141 37 53 37 98 68 99 68 1 0 46 -31 99 -68 101 -72 130
-79 141 -34 3 12 -10 69 -30 126 -19 58 -35 105 -35 106 0 0 43 32 95 70 77
57 94 75 95 96 0 16 -7 29 -16 33 -9 3 -66 6 -128 6 l-112 0 -37 114 c-39 119
-53 136 -94 120z m67 -299 c9 -11 33 -15 83 -15 l70 0 -56 -41 c-63 -44 -67
-57 -42 -129 22 -62 20 -63 -34 -25 -26 19 -57 35 -68 35 -10 0 -38 -14 -61
-31 -24 -17 -45 -29 -48 -27 -2 3 3 24 11 48 23 66 20 76 -40 123 l-55 42 67
3 c37 2 72 7 78 12 7 6 20 38 31 72 l18 62 17 -58 c10 -31 23 -63 29 -71z"/>
</g>
</svg>
